<svg width="26" height="23" viewBox="0 0 26 23" fill="none" xmlns="http://www.w3.org/2000/svg">
<path id="Vector" d="M13 11.5C11.2125 11.5 9.68229 10.937 8.40937 9.81094C7.13646 8.6849 6.5 7.33125 6.5 5.75C6.5 4.16875 7.13646 2.8151 8.40937 1.68906C9.68229 0.563021 11.2125 0 13 0C14.7875 0 16.3177 0.563021 17.5906 1.68906C18.8635 2.8151 19.5 4.16875 19.5 5.75C19.5 7.33125 18.8635 8.6849 17.5906 9.81094C16.3177 10.937 14.7875 11.5 13 11.5ZM0 23V18.975C0 18.1604 0.23725 17.4115 0.71175 16.7282C1.18625 16.0449 1.81567 15.524 2.6 15.1656C4.27917 14.4229 5.98542 13.8656 7.71875 13.4938C9.45208 13.122 11.2125 12.9365 13 12.9375C14.7875 12.9375 16.5479 13.1234 18.2812 13.4952C20.0146 13.8671 21.7208 14.4239 23.4 15.1656C24.1854 15.525 24.8154 16.0463 25.2899 16.7296C25.7644 17.4129 26.0011 18.1614 26 18.975V23H0Z" fill="black"/>
</svg>
