<svg width="40" height="17" viewBox="0 0 40 17" fill="none" xmlns="http://www.w3.org/2000/svg">
<path id="Vector" d="M13.3333 15.7857C13.3333 15.4637 13.5089 15.1548 13.8215 14.9271C14.134 14.6994 14.558 14.5714 15 14.5714H25C25.442 14.5714 25.866 14.6994 26.1785 14.9271C26.4911 15.1548 26.6667 15.4637 26.6667 15.7857C26.6667 16.1078 26.4911 16.4166 26.1785 16.6443C25.866 16.8721 25.442 17 25 17H15C14.558 17 14.134 16.8721 13.8215 16.6443C13.5089 16.4166 13.3333 16.1078 13.3333 15.7857ZM6.66667 8.5C6.66667 8.17795 6.84226 7.86909 7.15482 7.64137C7.46738 7.41365 7.89131 7.28571 8.33333 7.28571H31.6667C32.1087 7.28571 32.5326 7.41365 32.8452 7.64137C33.1577 7.86909 33.3333 8.17795 33.3333 8.5C33.3333 8.82205 33.1577 9.13091 32.8452 9.35863C32.5326 9.58635 32.1087 9.71429 31.6667 9.71429H8.33333C7.89131 9.71429 7.46738 9.58635 7.15482 9.35863C6.84226 9.13091 6.66667 8.82205 6.66667 8.5ZM0 1.21429C0 0.892237 0.175595 0.583379 0.488156 0.355656C0.800716 0.127934 1.22464 0 1.66667 0H38.3333C38.7754 0 39.1993 0.127934 39.5118 0.355656C39.8244 0.583379 40 0.892237 40 1.21429C40 1.53633 39.8244 1.84519 39.5118 2.07292C39.1993 2.30064 38.7754 2.42857 38.3333 2.42857H1.66667C1.22464 2.42857 0.800716 2.30064 0.488156 2.07292C0.175595 1.84519 0 1.53633 0 1.21429Z" fill="white"/>
</svg>
