<svg width="39" height="32" viewBox="0 0 39 32" fill="none" xmlns="http://www.w3.org/2000/svg">
<g id="material-symbols:lock">
<path id="Vector" d="M9.75 29.3333C8.85625 29.3333 8.09088 29.072 7.45388 28.5493C6.81688 28.0267 6.49892 27.3991 6.5 26.6667V13.3333C6.5 12.6 6.8185 11.972 7.4555 11.4493C8.0925 10.9267 8.85734 10.6658 9.75 10.6667H11.375V8C11.375 6.15555 12.1675 4.58311 13.7524 3.28266C15.3373 1.98222 17.2532 1.33244 19.5 1.33333C21.7479 1.33333 23.6643 1.98355 25.2493 3.284C26.8342 4.58444 27.6261 6.15644 27.625 8V10.6667H29.25C30.1438 10.6667 30.9091 10.928 31.5461 11.4507C32.1831 11.9733 32.5011 12.6009 32.5 13.3333V26.6667C32.5 27.4 32.1815 28.028 31.5445 28.5507C30.9075 29.0733 30.1427 29.3342 29.25 29.3333H9.75ZM19.5 22.6667C20.3938 22.6667 21.1591 22.4053 21.7961 21.8827C22.4331 21.36 22.7511 20.7324 22.75 20C22.75 19.2667 22.4315 18.6387 21.7945 18.116C21.1575 17.5933 20.3927 17.3324 19.5 17.3333C18.6063 17.3333 17.8409 17.5947 17.2039 18.1173C16.5669 18.64 16.2489 19.2676 16.25 20C16.25 20.7333 16.5685 21.3613 17.2055 21.884C17.8425 22.4067 18.6073 22.6675 19.5 22.6667ZM14.625 10.6667H24.375V8C24.375 6.88888 23.901 5.94444 22.9531 5.16666C22.0052 4.38888 20.8542 4 19.5 4C18.1458 4 16.9948 4.38888 16.0469 5.16666C15.099 5.94444 14.625 6.88888 14.625 8V10.6667Z" fill="black"/>
</g>
</svg>
